<svg width="21" height="14" viewBox="0 0 21 14" fill="none" xmlns="http://www.w3.org/2000/svg">
<path d="M2.16924 5.82H8.46002V7.96H2.16924V5.82ZM2.35 11.82H9.4904V14H0V0H9.23733V2.18H2.35V11.82Z" fill="#B9D8FB"/>
<path d="M16.9688 3.2C17.7401 3.2 18.427 3.36667 19.0296 3.7C19.6442 4.03333 20.1263 4.54667 20.4758 5.24C20.8253 5.92 21 6.8 21 7.88V14H18.7404V8.2C18.7404 7.25333 18.5355 6.54667 18.1258 6.08C17.7281 5.61333 17.1677 5.38 16.4446 5.38C15.9143 5.38 15.4443 5.5 15.0346 5.74C14.6249 5.98 14.3055 6.34 14.0765 6.82C13.8596 7.28667 13.7511 7.88 13.7511 8.6V14H11.4915V3.32H13.6427V6.2L13.2631 5.32C13.6005 4.64 14.0886 4.12 14.7273 3.76C15.3781 3.38667 16.1252 3.2 16.9688 3.2Z" fill="#B9D8FB"/>
</svg>
