<svg width="88" height="51" viewBox="0 0 88 51" fill="none" xmlns="http://www.w3.org/2000/svg">
<path d="M34.8 6.89995V31.5C34.8 35.3 36.1 37.2 38.8 37.2C41.5 37.2 42.8 35.3 42.8 31.5V8.69995H49.4C53.3 8.69995 55.2 7.49995 55.2 4.99995C55.2 2.49995 53.3 1.19995 49.4 1.19995H40.3C38 1.19995 36.5 1.69995 35.8 2.59995C35.2 3.49995 34.8 4.89995 34.8 6.89995ZM72 37.9C72.7 37.9 73.3 37.8 73.9 37.5C74.5 37.2 75 36.3999 75.5 35.0999L86.7 6.39995C86.9 5.99995 87 5.59995 87.1 5.19995C87.2 4.79995 87.2 4.39995 87.2 4.09995C87.2 3.09995 86.9 2.29995 86.4 1.69995C85.9 1.09995 85.1 0.79995 84 0.79995C83.1 0.79995 82.4 1.09995 81.9 1.59995C81.4 2.09995 80.9 2.89995 80.5 4.09995L75 18.7H74.8L68.8 3.79995C68.4 2.69995 67.9 1.99995 67.5 1.49995C67.1 0.99995 66.4 0.79995 65.6 0.79995C64.6 0.79995 63.8 1.09995 63.2 1.79995C62.6 2.49995 62.3 3.29995 62.3 4.29995C62.3 4.99995 62.4 5.59995 62.7 6.29995L71.4 27.7L69.4 32.5999C69.1 33.2999 69 33.8999 69 34.5999C69 35.5999 69.3 36.4 69.8 37C70.1 37.6 70.9 37.9 72 37.9ZM20.8 17.9V17.7C22.3 17.1 23.5 16.1999 24.3 15.0999C25.2 13.9999 25.6 12.5 25.6 10.5C25.6 7.29995 24.5 4.89995 22.4 3.19995C20.3 1.49995 17.1 0.699951 12.9 0.699951C11.4 0.699951 10 0.799951 8.70002 1.09995C7.40002 1.29995 6.20002 1.69995 5.10002 2.19995C4.10002 2.69995 3.30002 3.19995 2.70002 3.79995C2.10002 4.39995 1.80003 5.09995 1.80003 5.79995C1.80003 6.99995 2.10002 7.89995 2.70002 8.29995C3.30002 8.69995 4.10002 8.89995 5.20002 8.89995C5.90002 8.89995 6.50002 8.79995 7.10002 8.69995C7.70002 8.59995 8.20003 8.39995 8.80003 8.19995C9.40003 7.99995 10 7.89995 10.6 7.69995C11.2 7.59995 12 7.49995 12.8 7.49995C16.1 7.49995 17.7 8.79995 17.7 11.4C17.7 12.6 17.2 13.4 16.3 14C15.4 14.5 14.3 14.7999 13.1 14.7999H10.9C9.40002 14.7999 8.10002 15.1 7.20002 15.7C6.30002 16.3 5.80003 17.2 5.80003 18.2C5.80003 19.3 6.30002 20.2 7.20002 20.7C8.10002 21.3 9.40002 21.5 10.9 21.5H13.1C14.7 21.5 16 21.8999 16.8 22.7999C17.7 23.6999 18.1 24.6999 18.1 25.7999C18.1 27.0999 17.6 28.0999 16.7 28.7999C15.8 29.4999 14.4 29.9 12.6 29.9C11.1 29.9 9.90002 29.7999 9.20002 29.5999C8.50002 29.3999 7.80003 29.2 7.30003 29C6.80003 28.8 6.30002 28.6 5.90002 28.4C5.40002 28.2 4.70003 28.0999 3.80003 28.0999C2.90003 28.0999 2.00002 28.2999 1.40002 28.7999C0.800024 29.2999 0.400024 30.0999 0.400024 31.0999C0.400024 32.0999 0.700026 32.9999 1.30003 33.7999C1.90003 34.5999 2.80002 35.2 3.90002 35.7C5.00002 36.2 6.30002 36.4999 7.70002 36.7999C9.20002 36.9999 10.7 37.2 12.4 37.2C15 37.2 17.3 36.9 19.1 36.4C20.9 35.9 22.3 35.0999 23.4 34.0999C24.5 33.0999 25.3 31.9 25.7 30.5C26.2 29.1 26.4 27.6 26.4 26C26.4 24.4 25.9 22.7999 25 21.2999C24.2 19.8999 22.8 18.7 20.8 17.9Z" fill="white"/>
<path d="M85.3 48.8999C85.5 48.8999 85.7 48.8999 85.9 48.7999C86.1 48.6999 86.2 48.5999 86.3 48.3999C86.4 48.1999 86.4 47.9999 86.4 47.7999C86.4 47.5999 86.4 47.3999 86.3 47.1999C86.2 46.9999 86.1 46.8999 85.9 46.7999C85.7 46.6999 85.5 46.6999 85.3 46.6999C85.1 46.6999 84.9 46.6999 84.7 46.7999C84.5 46.8999 84.4 46.9999 84.3 47.1999C84.2 47.3999 84.2 47.5999 84.2 47.7999C84.2 47.9999 84.2 48.1999 84.3 48.3999C84.4 48.5999 84.5 48.6999 84.7 48.7999C84.9 48.7999 85.1 48.8999 85.3 48.8999ZM85.3 49.3999C85 49.3999 84.7 49.2999 84.4 49.1999C84.1 49.0999 83.9 48.8999 83.8 48.5999C83.7 48.2999 83.6 48.0999 83.6 47.6999C83.6 47.3999 83.7 47.0999 83.8 46.7999C83.9 46.4999 84.2 46.2999 84.4 46.1999C84.7 46.0999 85 45.9999 85.3 45.9999C85.6 45.9999 85.9 46.0999 86.2 46.1999C86.5 46.2999 86.7 46.4999 86.8 46.7999C86.9 47.0999 87 47.2999 87 47.6999C87 47.9999 86.9 48.2999 86.8 48.5999C86.7 48.8999 86.4 49.0999 86.2 49.1999C86 49.2999 85.7 49.3999 85.3 49.3999ZM83.4 46.5999H81.6V49.3999H81V45.9999H83.4V46.5999ZM78.4 48.8999C78.6 48.8999 78.8 48.8999 79 48.7999C79.2 48.6999 79.3 48.5999 79.4 48.3999C79.5 48.1999 79.5 47.9999 79.5 47.7999C79.5 47.5999 79.5 47.3999 79.4 47.1999C79.3 46.9999 79.2 46.8999 79 46.7999C78.8 46.6999 78.6 46.6999 78.4 46.6999C78.2 46.6999 78 46.6999 77.8 46.7999C77.6 46.8999 77.5 46.9999 77.4 47.1999C77.3 47.3999 77.3 47.5999 77.3 47.7999C77.3 47.9999 77.3 48.1999 77.4 48.3999C77.5 48.5999 77.6 48.6999 77.8 48.7999C78 48.7999 78.2 48.8999 78.4 48.8999ZM78.4 49.3999C78.1 49.3999 77.8 49.2999 77.5 49.1999C77.2 49.0999 77 48.8999 76.9 48.5999C76.8 48.2999 76.7 48.0999 76.7 47.6999C76.7 47.3999 76.8 47.0999 76.9 46.7999C77 46.4999 77.3 46.2999 77.5 46.1999C77.8 46.0999 78.1 45.9999 78.4 45.9999C78.7 45.9999 79 46.0999 79.3 46.1999C79.6 46.2999 79.8 46.4999 79.9 46.7999C80 47.0999 80.1 47.2999 80.1 47.6999C80.1 47.9999 80 48.2999 79.9 48.5999C79.8 48.8999 79.5 49.0999 79.3 49.1999C79 49.2999 78.7 49.3999 78.4 49.3999ZM74.6 47.9999H73.9V49.3999H73.3V45.9999H73.9V47.3999H74.6L75.7 45.9999H76.3L75 47.5999L76.3 49.2999H75.6L74.6 47.9999ZM71.2 49.3999C70.9 49.3999 70.6 49.2999 70.3 49.1999C70 49.0999 69.8 48.8999 69.7 48.5999C69.5 48.2999 69.5 48.0999 69.5 47.6999C69.5 47.3999 69.6 47.0999 69.7 46.7999C69.9 46.4999 70.1 46.2999 70.3 46.1999C70.6 46.0999 70.9 45.9999 71.2 45.9999C71.5 45.9999 71.8 46.0999 72 46.1999C72.2 46.2999 72.4 46.4999 72.5 46.6999L72 46.9999C71.9 46.7999 71.8 46.6999 71.6 46.5999C71.4 46.4999 71.3 46.4999 71.1 46.4999C70.9 46.4999 70.7 46.4999 70.5 46.5999C70.3 46.6999 70.2 46.7999 70.1 46.9999C70 47.1999 70 47.3999 70 47.5999C70 47.7999 70 47.9999 70.1 48.1999C70.2 48.3999 70.3 48.4999 70.5 48.5999C70.7 48.6999 70.9 48.6999 71.1 48.6999C71.3 48.6999 71.5 48.6999 71.6 48.5999C71.8 48.4999 71.9 48.3999 72 48.1999L72.5 48.4999C72.4 48.6999 72.2 48.8999 72 48.9999C71.8 49.2999 71.5 49.3999 71.2 49.3999ZM67.5 48.8999C67.8 48.8999 67.9 48.8999 68.1 48.7999C68.2 48.6999 68.3 48.5999 68.3 48.3999C68.3 48.1999 68.2 48.0999 68.1 47.9999C68 47.8999 67.8 47.8999 67.6 47.8999H66.6V48.8999H67.5ZM66.5 47.4999H67.4C67.6 47.4999 67.8 47.4999 67.9 47.3999C68 47.2999 68.1 47.1999 68.1 46.9999C68.1 46.6999 67.9 46.4999 67.4 46.4999H66.5V47.4999ZM68.2 47.5999C68.6 47.6999 68.8 47.9999 68.8 48.3999C68.8 48.6999 68.7 48.8999 68.5 49.0999C68.3 49.2999 68 49.2999 67.5 49.2999H65.9V45.9999H67.4C67.8 45.9999 68.1 46.0999 68.3 46.1999C68.5 46.2999 68.6 46.5999 68.6 46.7999C68.6 46.9999 68.6 47.0999 68.5 47.2999C68.5 47.4999 68.3 47.5999 68.2 47.5999ZM63.3 48.8999C63.5 48.8999 63.7 48.8999 63.9 48.7999C64.1 48.6999 64.2 48.5999 64.3 48.3999C64.4 48.1999 64.4 47.9999 64.4 47.7999C64.4 47.5999 64.4 47.3999 64.3 47.1999C64.2 46.9999 64.1 46.8999 63.9 46.7999C63.7 46.6999 63.5 46.6999 63.3 46.6999C63.1 46.6999 62.9 46.6999 62.7 46.7999C62.5 46.8999 62.4 46.9999 62.3 47.1999C62.2 47.3999 62.2 47.5999 62.2 47.7999C62.2 47.9999 62.2 48.1999 62.3 48.3999C62.4 48.5999 62.5 48.6999 62.7 48.7999C62.9 48.7999 63.1 48.8999 63.3 48.8999ZM63.3 49.3999C63 49.3999 62.7 49.2999 62.4 49.1999C62.1 49.0999 61.9 48.8999 61.8 48.5999C61.7 48.2999 61.6 48.0999 61.6 47.6999C61.6 47.3999 61.7 47.0999 61.8 46.7999C61.9 46.4999 62.2 46.2999 62.4 46.1999C62.7 46.0999 63 45.9999 63.3 45.9999C63.6 45.9999 63.9 46.0999 64.2 46.1999C64.5 46.2999 64.7 46.4999 64.8 46.7999C64.9 47.0999 65 47.2999 65 47.6999C65 47.9999 64.9 48.2999 64.8 48.5999C64.7 48.8999 64.4 49.0999 64.2 49.1999C64 49.2999 63.7 49.3999 63.3 49.3999ZM59.3 48.8999C59.5 48.8999 59.7 48.8999 59.9 48.7999C60.1 48.6999 60.2 48.5999 60.3 48.3999C60.4 48.1999 60.4 47.9999 60.4 47.7999C60.4 47.5999 60.4 47.3999 60.3 47.1999C60.2 46.9999 60.1 46.8999 59.9 46.7999C59.7 46.6999 59.5 46.6999 59.3 46.6999C59.1 46.6999 58.9 46.6999 58.7 46.7999C58.5 46.8999 58.4 46.9999 58.3 47.1999C58.2 47.3999 58.2 47.5999 58.2 47.7999C58.2 47.9999 58.2 48.1999 58.3 48.3999C58.4 48.5999 58.5 48.6999 58.7 48.7999C58.9 48.7999 59.1 48.8999 59.3 48.8999ZM59.4 45.9999C59.7 45.9999 60 46.0999 60.3 46.1999C60.6 46.2999 60.8 46.4999 60.9 46.7999C61 47.0999 61.1 47.2999 61.1 47.6999C61.1 47.9999 61 48.2999 60.9 48.5999C60.8 48.8999 60.6 49.0999 60.3 49.1999C60 49.2999 59.8 49.3999 59.4 49.3999C59.2 49.3999 58.9 49.3999 58.7 49.2999C58.5 49.1999 58.3 49.0999 58.2 48.8999V50.5999H57.6V45.9999H58.2V46.4999C58.3 46.2999 58.5 46.1999 58.7 46.0999C58.9 46.0999 59.1 45.9999 59.4 45.9999ZM55 48.8999C55.2 48.8999 55.4 48.8999 55.6 48.7999C55.8 48.6999 55.9 48.5999 56 48.3999C56.1 48.1999 56.1 47.9999 56.1 47.7999C56.1 47.5999 56.1 47.3999 56 47.1999C55.9 46.9999 55.8 46.8999 55.6 46.7999C55.4 46.6999 55.2 46.6999 55 46.6999C54.8 46.6999 54.6 46.6999 54.4 46.7999C54.2 46.8999 54.1 46.9999 54 47.1999C53.9 47.3999 53.9 47.5999 53.9 47.7999C53.9 47.9999 53.9 48.1999 54 48.3999C54.1 48.5999 54.2 48.6999 54.4 48.7999C54.6 48.7999 54.8 48.8999 55 48.8999ZM55 49.3999C54.7 49.3999 54.4 49.2999 54.1 49.1999C53.8 49.0999 53.6 48.8999 53.5 48.5999C53.4 48.2999 53.3 48.0999 53.3 47.6999C53.3 47.3999 53.4 47.0999 53.5 46.7999C53.6 46.4999 53.9 46.2999 54.1 46.1999C54.4 46.0999 54.7 45.9999 55 45.9999C55.3 45.9999 55.6 46.0999 55.9 46.1999C56.2 46.2999 56.4 46.4999 56.5 46.7999C56.6 47.0999 56.7 47.2999 56.7 47.6999C56.7 47.9999 56.6 48.2999 56.5 48.5999C56.4 48.8999 56.1 49.0999 55.9 49.1999C55.6 49.2999 55.3 49.3999 55 49.3999ZM50.2 47.1999C50.2 47.5999 50.1 47.9999 50.1 48.1999C50 48.4999 50 48.6999 49.8 48.7999H51.7V46.4999H50.3L50.2 47.1999ZM52.8 48.7999V50.0999H52.2V49.2999H49.4V50.0999H48.8V48.7999H49C49.2 48.7999 49.4 48.5999 49.4 48.2999C49.5 47.9999 49.5 47.5999 49.6 47.0999V45.9999H52.2V48.7999H52.8ZM46.9 46.4999C46.6 46.4999 46.4 46.5999 46.2 46.7999C46 46.9999 45.9 47.1999 45.9 47.4999H48C48 47.1999 47.9 46.9999 47.7 46.7999C47.4 46.5999 47.2 46.4999 46.9 46.4999ZM48.5 47.6999C48.5 47.6999 48.5 47.7999 48.5 47.8999H45.8C45.8 48.1999 46 48.3999 46.2 48.5999C46.4 48.7999 46.7 48.8999 47 48.8999C47.4 48.8999 47.7 48.7999 48 48.4999L48.3 48.8999C48.1 49.0999 48 49.1999 47.7 49.2999C47.5 49.3999 47.2 49.3999 47 49.3999C46.6 49.3999 46.3 49.2999 46.1 49.1999C45.8 49.0999 45.6 48.8999 45.5 48.5999C45.4 48.2999 45.3 47.9999 45.3 47.6999C45.3 47.3999 45.4 47.0999 45.5 46.7999C45.6 46.4999 45.8 46.2999 46.1 46.1999C46.4 46.0999 46.6 45.9999 47 45.9999C47.4 45.9999 47.6 46.0999 47.8 46.1999C48 46.2999 48.2 46.4999 48.4 46.7999C48.5 47.0999 48.5 47.3999 48.5 47.6999ZM40 47.1999C40 47.5999 40.1 47.9999 40.4 48.1999C40.7 48.3999 41.1 48.5999 41.7 48.5999V45.7999C41.1 45.7999 40.7 45.9999 40.4 46.1999C40.2 46.3999 40 46.6999 40 47.1999ZM42.3 48.5999C42.9 48.5999 43.3 48.3999 43.6 48.1999C43.9 47.9999 44 47.5999 44 47.1999C44 46.7999 43.9 46.3999 43.6 46.1999C43.3 45.9999 42.9 45.7999 42.3 45.7999V48.5999ZM44.7 47.1999C44.7 47.7999 44.5 48.1999 44.1 48.5999C43.7 48.8999 43.1 49.0999 42.4 49.0999V49.5999H41.8V49.0999C41.1 49.0999 40.5 48.8999 40.1 48.5999C39.7 48.2999 39.5 47.7999 39.5 47.1999C39.5 46.5999 39.7 46.1999 40.1 45.7999C40.5 45.4999 41.1 45.2999 41.8 45.2999V44.8999H42.4V45.2999C43.1 45.2999 43.7 45.4999 44.1 45.7999C44.5 46.0999 44.7 46.5999 44.7 47.1999ZM36.8 49.3999C36.7 49.3999 36.6 49.3999 36.5 49.2999C36.4 49.1999 36.4 49.0999 36.4 48.9999C36.4 48.8999 36.4 48.7999 36.5 48.6999C36.6 48.5999 36.7 48.5999 36.8 48.5999C36.9 48.5999 37 48.5999 37.1 48.6999C37.2 48.7999 37.2 48.8999 37.2 48.9999C37.2 49.0999 37.2 49.1999 37.1 49.2999C37 49.3999 36.9 49.3999 36.8 49.3999ZM34.8 49.3999V46.1999L33.2 48.8999H32.9L31.3 46.2999V49.4999H30.7V44.9999H31.2L33 48.0999L34.8 44.9999H35.3V49.3999H34.8ZM29.3 49.3999C29.2 49.3999 29.1 49.3999 29 49.2999C28.9 49.1999 28.9 49.0999 28.9 48.9999C28.9 48.8999 28.9 48.7999 29 48.6999C29.1 48.5999 29.2 48.5999 29.3 48.5999C29.4 48.5999 29.5 48.5999 29.6 48.6999C29.7 48.7999 29.7 48.8999 29.7 48.9999C29.7 49.0999 29.7 49.1999 29.6 49.2999C29.5 49.3999 29.4 49.3999 29.3 49.3999ZM27.9 44.9999V49.3999H27.3V47.3999H24.8V49.3999H24.2V44.9999H24.8V46.8999H27.3V44.9999H27.9ZM18 45.9999H18.6V48.3999L20.6 45.9999H21.1V49.2999H20.5V46.9999L18.5 49.3999H18V45.9999ZM13.7 45.9999H14.3V47.3999H16.2V45.9999H16.8V49.2999H16.2V47.9999H14.3V49.3999H13.7V45.9999ZM11.2 46.4999C10.9 46.4999 10.7 46.5999 10.5 46.7999C10.3 46.9999 10.2 47.1999 10.2 47.4999H12.3C12.3 47.1999 12.2 46.9999 12 46.7999C11.7 46.5999 11.4 46.4999 11.2 46.4999ZM12.8 47.6999C12.8 47.6999 12.8 47.7999 12.8 47.8999H10.1C10.1 48.1999 10.3 48.3999 10.5 48.5999C10.7 48.7999 11 48.8999 11.3 48.8999C11.7 48.8999 12 48.7999 12.3 48.4999L12.6 48.8999C12.4 49.0999 12.3 49.1999 12 49.2999C11.8 49.3999 11.5 49.3999 11.3 49.3999C10.9 49.3999 10.6 49.2999 10.4 49.1999C10.1 49.0999 9.90003 48.8999 9.80003 48.5999C9.70003 48.2999 9.60002 47.9999 9.60002 47.6999C9.60002 47.3999 9.70003 47.0999 9.80003 46.7999C9.90003 46.4999 10.1 46.2999 10.4 46.1999C10.7 46.0999 10.9 45.9999 11.3 45.9999C11.6 45.9999 11.9 46.0999 12.1 46.1999C12.3 46.2999 12.5 46.4999 12.7 46.7999C12.7 47.0999 12.8 47.3999 12.8 47.6999ZM8.60002 45.9999V49.2999H8.10002V46.8999L6.90002 48.8999H6.60002L5.40002 46.7999V49.1999H4.80003V45.9999H5.40002L6.70002 48.1999L8.00002 45.9999H8.60002ZM0.500023 45.9999H1.10002V48.3999L3.10002 45.9999H3.60002V49.2999H3.00002V46.9999L1.00002 49.3999H0.400024V45.9999H0.500023Z" fill="white"/>
</svg>
