<svg width="69" height="69" viewBox="0 0 69 69" fill="none" xmlns="http://www.w3.org/2000/svg">
<path fill-rule="evenodd" clip-rule="evenodd" d="M0.200012 41.1001L34.3 68.4001L54.7 41.1001H0.200012Z" fill="white"/>
<path fill-rule="evenodd" clip-rule="evenodd" d="M54.7 41.1L13.9 30.2001L17.5 23.8V31.2001L24.5 27.1L54.7 41.1Z" fill="white"/>
<path fill-rule="evenodd" clip-rule="evenodd" d="M13.7 30.2L15.7 30.7L2.90001 41.0999H0.200012L13.7 30.2Z" fill="white"/>
<path fill-rule="evenodd" clip-rule="evenodd" d="M42.9 20.7L43.7 22.2L26.7 28.0999L24.5 27.0999L42.9 20.7Z" fill="white"/>
<path fill-rule="evenodd" clip-rule="evenodd" d="M68.3 27.5C63.2 32 59.8 36.5999 54.7 41.0999L42.9 20.7L68.3 27.5Z" fill="white"/>
<path fill-rule="evenodd" clip-rule="evenodd" d="M68.3 27.5L66.5 27L65 21.7L53.8 23.6L50 22.6L66.2 19.7L68.3 27.5Z" fill="white"/>
<path fill-rule="evenodd" clip-rule="evenodd" d="M24.5 27.1L22.8 28.1L17.5 25.7001V23.8L24.5 27.1Z" fill="white"/>
<path fill-rule="evenodd" clip-rule="evenodd" d="M61.5 0.300049L62.9 5.70005L68.3 7.10005L62.9 8.50005L61.5 13.9L60.2 8.50005L54.7 7.10005L60.2 5.70005L61.5 0.300049Z" fill="white"/>
</svg>
