<svg width="32" height="32" viewBox="0 0 32 32" fill="none" xmlns="http://www.w3.org/2000/svg">
<path d="M22.433 21.1783C24.5319 18.6582 25.557 15.4957 25.4105 12.2344C25.2641 8.92367 23.8486 5.81059 21.4568 3.53755C16.3805 -1.35443 8.32667 -1.15678 3.49438 4.03169C-1.33791 9.17074 -1.14266 17.3241 3.98249 22.216C6.42304 24.5385 9.59576 25.7244 12.7685 25.7244C15.5995 25.7244 18.3817 24.7856 20.7247 22.9078L30.2916 32L32 30.1717L22.433 21.1783ZM20.2366 20.0912C18.3329 22.1666 15.7459 23.3031 12.9637 23.402C10.1815 23.4514 7.54569 22.4631 5.54444 20.536C1.39551 16.5334 1.24908 9.86254 5.15396 5.66235C7.20402 3.48814 9.93743 2.40103 12.6708 2.40103C15.2578 2.40103 17.796 3.33989 19.7973 5.26704C21.7985 7.19418 22.97 9.81313 23.0188 12.6297C23.1652 15.3969 22.1402 18.0653 20.2366 20.0912Z" fill="white"/>
</svg>
