<svg width="16" height="17" viewBox="0 0 16 17" fill="none" xmlns="http://www.w3.org/2000/svg">
<path d="M10.8132 9.47684C12.2198 8.54374 13.1868 6.96913 13.1868 5.16124C13.1868 2.3036 10.8718 0 8 0C5.12821 0 2.81319 2.3036 2.81319 5.16124C2.81319 6.96913 3.75092 8.5729 5.18681 9.47684C2.1685 10.6141 0 13.53 0 16.9417C0 16.9708 0 16.9708 0 17H1.40659C1.40659 16.9708 1.40659 16.9708 1.40659 16.9417C1.40659 13.3259 4.3663 10.3808 8 10.3808C11.6337 10.3808 14.5934 13.3259 14.5934 16.9417C14.5934 16.9708 14.5934 16.9708 14.5934 17H16C16 16.9708 16 16.9708 16 16.9417C15.9707 13.53 13.8315 10.6141 10.8132 9.47684ZM4.19048 5.13208C4.19048 3.06175 5.89011 1.3705 7.9707 1.3705C10.0513 1.3705 11.7509 3.06175 11.7509 5.13208C11.7509 7.2024 10.0513 8.89365 7.9707 8.89365C5.89011 8.89365 4.19048 7.23156 4.19048 5.13208Z" fill="white"/>
</svg>
