<svg width="30" height="20" viewBox="0 0 30 20" fill="none" xmlns="http://www.w3.org/2000/svg">
<g clip-path="url(#clip0_104_126)">
<path d="M15.2559 -0.000116686C18.9267 0.0537675 22.4934 1.36495 25.5741 4.05916C27.2836 5.54995 28.6895 7.30119 29.8003 9.31286C29.8176 9.34878 29.835 9.38471 29.8523 9.41165C30.0606 9.8068 30.0606 10.2019 29.835 10.5971C29.3143 11.5131 28.7502 12.4022 28.108 13.2374C26.8324 14.9078 25.3484 16.3268 23.5868 17.4314C22.1028 18.3654 20.4974 19.012 18.8225 19.461C18.0155 19.6766 17.1911 19.8293 16.358 19.9191C15.4468 20.0089 14.5443 20.0178 13.6331 19.946C10.9082 19.7125 8.4436 18.7246 6.16127 17.1979C5.1633 16.5333 4.21739 15.7969 3.3843 14.9168C3.21942 14.7462 3.06321 14.5755 2.90701 14.4049C2.70741 14.1804 2.57724 13.9289 2.55121 13.6236C2.49046 12.8333 3.24545 12.2495 3.96573 12.5369C4.174 12.6178 4.34756 12.7525 4.50377 12.9231C5.30215 13.7852 6.16127 14.5576 7.11586 15.2311C8.63452 16.2998 10.292 17.0183 12.0797 17.4045C13.095 17.629 14.119 17.7457 15.1604 17.7547C16.9828 17.7547 18.7358 17.3865 20.4106 16.6321C23.2744 15.3299 25.5827 13.3362 27.3183 10.633C27.4138 10.4893 27.5006 10.3367 27.596 10.184C27.6828 10.0583 27.6828 9.93253 27.596 9.79782C26.4158 7.90289 24.9926 6.23248 23.205 4.93028C21.6516 3.79872 19.942 3.04434 18.0936 2.60428C17.0435 2.36181 15.9761 2.21811 14.8914 2.21811C12.8173 2.21811 10.8474 2.70307 8.99032 3.65502C6.0311 5.16378 3.74878 7.39099 2.1173 10.3277C2.03052 10.4893 1.92639 10.651 1.79622 10.7857C1.47513 11.118 1.0933 11.1988 0.676749 11.0192C0.251525 10.8396 0.0258959 10.5073 -0.000138198 10.0403C-0.00881624 9.78884 0.0692861 9.55534 0.199457 9.33082C0.659393 8.5046 1.16272 7.7143 1.72679 6.9689C3.29752 4.89436 5.18065 3.20599 7.43695 1.95767C8.99032 1.10451 10.6391 0.529744 12.3748 0.233381C13.2078 0.0807095 14.0583 -0.00909738 15.2559 -0.000116686Z" fill="#B9D8FB"/>
<path d="M15.0043 4.43652C18.0677 4.45448 20.3327 7.03194 20.3587 9.94169C20.3934 12.9053 18.0764 15.5367 14.9957 15.5367C11.9844 15.5367 9.64131 13.0131 9.63263 10.0135C9.63263 6.94214 12.0278 4.4455 15.0043 4.43652ZM15.0043 13.3184C16.7747 13.3184 18.2239 11.8187 18.2239 9.97761C18.2239 8.17249 16.7747 6.66373 15.0391 6.66373C13.2253 6.66373 11.7935 8.14555 11.7935 10.0225C11.7848 11.8276 13.234 13.3184 15.0043 13.3184Z" fill="#B9D8FB"/>
</g>
<defs>
<clipPath id="clip0_104_126">
<rect width="30" height="20" fill="white"/>
</clipPath>
</defs>
</svg>
